<svg display="none" xmlns="http://www.w3.org/2000/svg">
    <symbol id="svg-phone" viewBox="0 0 16 16">
        <path d="M3.654 1.328a.678.678 0 0 0-1.015-.063L1.605 2.3c-.483.484-.661 1.169-.45 1.77a17.568 17.568 0 0 0 4.168 6.608 17.569 17.569 0 0 0 6.608 4.168c.601.211 1.286.033 1.77-.45l1.034-1.034a.678.678 0 0 0-.063-1.015l-2.307-1.794a.678.678 0 0 0-.58-.122l-2.19.547a1.745 1.745 0 0 1-1.657-.459L5.482 8.062a1.745 1.745 0 0 1-.46-1.657l.548-2.19a.678.678 0 0 0-.122-.58L3.654 1.328zM1.884.511a1.745 1.745 0 0 1 2.612.163L6.29 2.98c.329.423.445.974.315 1.494l-.547 2.19a.678.678 0 0 0 .178.643l2.457 2.457a.678.678 0 0 0 .644.178l2.189-.547a1.745 1.745 0 0 1 1.494.315l2.306 1.794c.829.645.905 1.87.163 2.611l-1.034 1.034c-.74.74-1.846 1.065-2.877.702a18.634 18.634 0 0 1-7.01-4.42 18.634 18.634 0 0 1-4.42-7.009c-.362-1.03-.037-2.137.703-2.877L1.885.511z"/>
    </symbol>

    <symbol id="svg-mail" viewBox="0 0 16 16">
        <path d="M0 4a2 2 0 0 1 2-2h12a2 2 0 0 1 2 2v8a2 2 0 0 1-2 2H2a2 2 0 0 1-2-2V4zm2-1a1 1 0 0 0-1 1v.217l7 4.2 7-4.2V4a1 1 0 0 0-1-1H2zm13 2.383l-4.758 2.855L15 11.114v-5.73zm-.034 6.878L9.271 8.82 8 9.583 6.728 8.82l-5.694 3.44A1 1 0 0 0 2 13h12a1 1 0 0 0 .966-.739zM1 11.114l4.758-2.876L1 5.383v5.73z"/>
    </symbol>

    <symbol id="svg-plus" viewBox="0 0 426.66667 426.66667">
        <path d="m405.332031 192h-170.664062v-170.667969c0-11.773437-9.558594-21.332031-21.335938-21.332031-11.773437 0-21.332031 9.558594-21.332031 21.332031v170.667969h-170.667969c-11.773437 0-21.332031 9.558594-21.332031 21.332031 0 11.777344 9.558594 21.335938 21.332031 21.335938h170.667969v170.664062c0 11.777344 9.558594 21.335938 21.332031 21.335938 11.777344 0 21.335938-9.558594 21.335938-21.335938v-170.664062h170.664062c11.777344 0 21.335938-9.558594 21.335938-21.335938 0-11.773437-9.558594-21.332031-21.335938-21.332031zm0 0"/>
    </symbol>

    <symbol id="svg-copy" viewBox="0 0 512 512">
        <path d="m256 512c-68.38 0-132.667-26.629-181.02-74.98-48.351-48.353-74.98-112.64-74.98-181.02s26.629-132.667 74.98-181.02c48.353-48.351 112.64-74.98 181.02-74.98s132.667 26.629 181.02 74.98c48.351 48.353 74.98 112.64 74.98 181.02s-26.629 132.667-74.98 181.02c-48.353 48.351-112.64 74.98-181.02 74.98zm0-472c-119.103 0-216 96.897-216 216s96.897 216 216 216 216-96.897 216-216-96.897-216-216-216zm90.313 307.924c7.81-7.811 7.811-20.474 0-28.284-7.812-7.811-20.475-7.81-28.284 0-35.092 35.09-92.188 35.092-127.28 0-16.998-16.999-26.36-39.6-26.36-63.64s9.362-46.641 26.36-63.64c35.092-35.092 92.188-35.09 127.28 0 7.811 7.811 20.474 7.811 28.284 0s7.81-20.474 0-28.284c-50.688-50.687-133.162-50.686-183.848 0-24.555 24.554-38.077 57.2-38.077 91.924s13.522 67.37 38.077 91.924c25.343 25.343 58.633 38.015 91.924 38.015s66.581-12.672 91.924-38.015z"/>
    </symbol>

    <symbol id="svg-linkedin-fill" viewBox="0 0 448 512">
        <path d="M416 32H31.9C14.3 32 0 46.5 0 64.3v383.4C0 465.5 14.3 480 31.9 480H416c17.6 0 32-14.5 32-32.3V64.3c0-17.8-14.4-32.3-32-32.3zM135.4 416H69V202.2h66.5V416zm-33.2-243c-21.3 0-38.5-17.3-38.5-38.5S80.9 96 102.2 96c21.2 0 38.5 17.3 38.5 38.5 0 21.3-17.2 38.5-38.5 38.5zm282.1 243h-66.4V312c0-24.8-.5-56.7-34.5-56.7-34.6 0-39.9 27-39.9 54.9V416h-66.4V202.2h63.7v29.2h.9c8.9-16.8 30.6-34.5 62.9-34.5 67.2 0 79.7 44.3 79.7 101.9V416z"/>
    </symbol>

    <symbol id="svg-linkedin" viewBox="0 0 448 512">
        <path d="M100.28 448H7.4V148.9h92.88zM53.79 108.1C24.09 108.1 0 83.5 0 53.8a53.79 53.79 0 0 1 107.58 0c0 29.7-24.1 54.3-53.79 54.3zM447.9 448h-92.68V302.4c0-34.7-.7-79.2-48.29-79.2-48.29 0-55.69 37.7-55.69 76.7V448h-92.78V148.9h89.08v40.8h1.3c12.4-23.5 42.69-48.3 87.88-48.3 94 0 111.28 61.9 111.28 142.3V448z"/>
    </symbol>

    <symbol id="svg-skype-fill" viewBox="0 0 438.536 438.536">
        <path d="M415.7,262.093c3.039-14.657,4.564-28.935,4.564-42.826c0-27.218-5.276-53.247-15.844-78.087   c-10.562-24.838-24.838-46.249-42.825-64.237C343.608,58.955,322.2,44.68,297.361,34.114   c-24.845-10.559-50.866-15.843-78.088-15.843c-13.894,0-28.171,1.524-42.827,4.57C156.651,7.614,134.381,0,109.637,0   C79.375,0,53.538,10.705,32.124,32.115c-21.416,21.416-32.12,47.253-32.12,77.516c0,24.744,7.614,47.014,22.839,66.809   c-3.044,14.655-4.568,28.933-4.568,42.827c0,27.215,5.28,53.243,15.843,78.085c10.562,24.838,24.838,46.25,42.827,64.241   c17.987,17.986,39.401,32.257,64.239,42.824c24.84,10.564,50.869,15.845,78.087,15.845c13.893,0,28.17-1.526,42.834-4.572   c19.79,15.229,42.058,22.847,66.804,22.847c30.259,0,56.103-10.711,77.505-32.12c21.416-21.416,32.12-47.253,32.12-77.519   C438.529,304.158,430.918,281.891,415.7,262.093z M325.472,304.49c-6.276,11.136-14.702,20.033-25.263,26.696   c-10.567,6.663-22.224,11.748-34.975,15.273c-12.751,3.518-26.073,5.283-39.971,5.283c-32.163,0-59.855-6.235-83.078-18.705   c-23.223-12.471-34.833-27.453-34.833-44.968c0-8.562,2.428-15.693,7.282-21.408c4.853-5.712,12.038-8.562,21.555-8.562   c5.52,0,10.657,1.522,15.415,4.564c4.758,3.046,9.135,6.715,13.134,10.999c3.999,4.285,8.326,8.562,12.99,12.847   c4.661,4.285,10.847,7.946,18.555,10.992c7.71,3.046,16.418,4.572,26.128,4.572c12.371,0,22.36-2.423,29.981-7.275   c7.61-4.859,11.416-10.999,11.416-18.418c0-7.618-3.042-13.326-9.13-17.132c-4.182-2.673-14.846-6.098-31.977-10.283   l-41.688-10.284c-11.419-2.662-21.222-5.752-29.408-9.271c-8.186-3.524-15.8-8.134-22.841-13.849   c-7.039-5.708-12.369-12.891-15.986-21.555c-3.616-8.658-5.424-18.796-5.424-30.406c0-13.896,3.189-26.121,9.563-36.688   c6.374-10.565,14.849-18.846,25.409-24.841c10.562-5.996,21.935-10.468,34.119-13.418c12.179-2.951,24.742-4.426,37.685-4.426   c18.276,0,35.589,2.19,51.961,6.567c16.368,4.377,29.882,10.801,40.538,19.271c10.657,8.473,15.985,17.942,15.985,28.409   c0,8.562-2.707,15.893-8.138,21.982c-5.414,6.088-12.601,9.134-21.55,9.134c-4.948,0-9.514-1.143-13.702-3.427   c-4.186-2.283-7.99-5.042-11.423-8.278c-3.426-3.234-7.047-6.423-10.852-9.563c-3.806-3.14-8.946-5.852-15.41-8.136   c-6.479-2.284-13.802-3.427-21.986-3.427c-27.406,0-41.112,7.323-41.112,21.982c0,3.234,0.715,6.09,2.141,8.564   c1.427,2.474,3,4.473,4.71,5.996c1.709,1.525,4.565,3.046,8.564,4.57c3.999,1.525,7.33,2.622,9.994,3.284   c2.663,0.666,6.854,1.665,12.562,2.996l29.694,6.851c9.325,2.096,17.648,4.286,24.981,6.567c7.331,2.288,15.181,5.521,23.555,9.71   c8.374,4.187,15.321,8.848,20.838,13.988c5.523,5.144,10.137,11.656,13.853,19.555c3.714,7.901,5.564,16.61,5.564,26.124   C334.896,280.84,331.761,293.357,325.472,304.49z"/>
    </symbol>

    <symbol id="svg-skype" viewBox="0 0 470 470">
        <g>
            <path d="m434.331 304.847c9.106-24.096 13.718-49.398 13.718-75.335 0-56.923-22.157-110.428-62.391-150.661-40.232-40.231-93.737-62.388-150.658-62.388-25.806 0-50.898 4.546-74.702 13.524-17.453-19.147-41.832-29.987-67.982-29.987-50.903 0-92.316 41.414-92.316 92.317 0 27.214 12.157 53.053 32.858 70.529-7.24 21.684-10.907 44.076-10.907 66.666 0 56.921 22.156 110.426 62.387 150.658 40.231 40.233 93.738 62.391 150.662 62.391 22.852 0 45.588-3.768 67.703-11.209 17.193 24.027 45.214 38.648 74.981 38.648 50.903 0 92.316-41.414 92.316-92.317 0-28.659-13.192-55.321-35.669-72.836zm-56.647 145.153c-25.491 0-49.353-13.707-62.272-35.772-1.839-3.139-5.167-4.948-8.633-4.948-1.177 0-2.37.209-3.526.645-22.229 8.385-45.192 12.636-68.252 12.636-51.582 0-100.065-20.077-136.52-56.533-36.454-36.455-56.529-84.937-56.529-136.516 0-22.627 4.073-45.051 12.107-66.649 1.576-4.24.111-9.01-3.574-11.633-19.089-13.588-30.485-35.612-30.485-58.913 0-39.876 32.441-72.317 72.316-72.317 22.463 0 43.263 10.228 57.066 28.062 2.769 3.575 7.59 4.849 11.762 3.107 23.368-9.758 48.217-14.705 73.855-14.705 51.579 0 100.061 20.076 136.517 56.531 36.455 36.455 56.532 84.938 56.532 136.518 0 25.949-5.091 51.195-15.132 75.038-1.882 4.468-.287 9.643 3.782 12.277 20.853 13.494 33.302 36.243 33.302 60.855 0 39.876-32.441 72.317-72.316 72.317z"/>
            <path d="m249.804 198.135c-69.187-13.447-73.667-34.583-57.021-49.321 16.666-14.726 66.164-21.361 80.076 4.486 13.463 24.973 23.077 35.226 41.641 30.74 17.738-4.277 20.291-28.822 12.82-43.554-6.026-11.897-33.315-42.284-87.131-42.284-53.807 0-110.184 19.861-110.184 69.187s51.254 71.105 100.58 78.158c49.315 7.042 60.848 28.189 54.461 43.57-6.4 15.36-27.559 30.087-59.584 26.893-32.037-3.194-46.818-30.022-51.256-43.57-4.266-13.012-19.207-14.728-26.26-14.095-7.053.654-29.475 9.636-19.229 41.008 10.257 31.394 43.58 56.378 110.195 56.378s105.693-41.008 105.695-80.075c0-39.085-25.606-64.059-94.803-77.521z"/>
        </g>
    </symbol>

    <symbol id="svg-github" viewBox="0 0 16 16">
        <path d="M8 0C3.58 0 0 3.58 0 8c0 3.54 2.29 6.53 5.47 7.59.4.07.55-.17.55-.38 0-.19-.01-.82-.01-1.49-2.01.37-2.53-.49-2.69-.94-.09-.23-.48-.94-.82-1.13-.28-.15-.68-.52-.01-.53.63-.01 1.08.58 1.23.82.72 1.21 1.87.87 2.33.66.07-.52.28-.87.51-1.07-1.78-.2-3.64-.89-3.64-3.95 0-.87.31-1.59.82-2.15-.08-.2-.36-1.02.08-2.12 0 0 .67-.21 2.2.82.64-.18 1.32-.27 2-.27.68 0 1.36.09 2 .27 1.53-1.04 2.2-.82 2.2-.82.44 1.1.16 1.92.08 2.12.51.56.82 1.27.82 2.15 0 3.07-1.87 3.75-3.65 3.95.29.25.54.73.54 1.48 0 1.07-.01 1.93-.01 2.2 0 .21.15.46.55.38A8.012 8.012 0 0 0 16 8c0-4.42-3.58-8-8-8z"/>
    </symbol>

    <symbol id="svg-menu" viewBox="0 0 512 512">
        <path xmlns="http://www.w3.org/2000/svg" d="M416.666,0H95.332C42.766,0,0,42.767,0,95.334v321.332C0,469.233,42.766,512,95.332,512h321.334    C469.233,512,512,469.233,512,416.666V95.334C512,42.767,469.233,0,416.666,0z M400.6,391.5H111.4c-8.285,0-15-6.716-15-15    s6.715-15,15-15h289.2c8.283,0,15,6.716,15,15S408.883,391.5,400.6,391.5z M400.6,271H111.4c-8.285,0-15-6.716-15-15    s6.715-15,15-15h289.2c8.283,0,15,6.716,15,15S408.883,271,400.6,271z M400.6,150.5H111.4c-8.285,0-15-6.716-15-15s6.715-15,15-15    h289.2c8.283,0,15,6.716,15,15S408.883,150.5,400.6,150.5z"/>
    </symbol>

    <symbol id="svg-tech" viewBox="0 0 16 16">
        <path d="M6.5 1A1.5 1.5 0 0 0 5 2.5V3H1.5A1.5 1.5 0 0 0 0 4.5v1.384l7.614 2.03a1.5 1.5 0 0 0 .772 0L16 5.884V4.5A1.5 1.5 0 0 0 14.5 3H11v-.5A1.5 1.5 0 0 0 9.5 1h-3zm0 1h3a.5.5 0 0 1 .5.5V3H6v-.5a.5.5 0 0 1 .5-.5z"/>
        <path d="M0 12.5A1.5 1.5 0 0 0 1.5 14h13a1.5 1.5 0 0 0 1.5-1.5V6.85L8.129 8.947a.5.5 0 0 1-.258 0L0 6.85v5.65z"/>
    </symbol>

    <symbol id="svg-soft" viewBox="0 0 16 16">
        <path d="M6.5 1A1.5 1.5 0 0 0 5 2.5V3H1.5A1.5 1.5 0 0 0 0 4.5v8A1.5 1.5 0 0 0 1.5 14h13a1.5 1.5 0 0 0 1.5-1.5v-8A1.5 1.5 0 0 0 14.5 3H11v-.5A1.5 1.5 0 0 0 9.5 1h-3zm0 1h3a.5.5 0 0 1 .5.5V3H6v-.5a.5.5 0 0 1 .5-.5zm1.886 6.914L15 7.151V12.5a.5.5 0 0 1-.5.5h-13a.5.5 0 0 1-.5-.5V7.15l6.614 1.764a1.5 1.5 0 0 0 .772 0zM1.5 4h13a.5.5 0 0 1 .5.5v1.616L8.129 7.948a.5.5 0 0 1-.258 0L1 6.116V4.5a.5.5 0 0 1 .5-.5z"/>
    </symbol>

    <symbol id="svg-prev" viewBox="0 0 55.573 55.573">
       <path d="M12.745,23.915c0.283-0.282,0.59-0.52,0.913-0.727L35.266,1.581c2.108-2.107,5.528-2.108,7.637,0.001   c2.109,2.108,2.109,5.527,0,7.637L24.294,27.828l18.705,18.706c2.109,2.108,2.109,5.526,0,7.637   c-1.055,1.056-2.438,1.582-3.818,1.582s-2.764-0.526-3.818-1.582L13.658,32.464c-0.323-0.207-0.632-0.445-0.913-0.727   c-1.078-1.078-1.598-2.498-1.572-3.911C11.147,26.413,11.667,24.994,12.745,23.915z"/>
    </symbol>

    <symbol id="svg-next" viewBox="0 0 55.572 55.572">
        <path d="M43.006,23.916c-0.28-0.282-0.59-0.52-0.912-0.727L20.485,1.581c-2.109-2.107-5.527-2.108-7.637,0.001   c-2.109,2.108-2.109,5.527,0,7.637l18.611,18.609L12.754,46.535c-2.11,2.107-2.11,5.527,0,7.637c1.055,1.053,2.436,1.58,3.817,1.58   s2.765-0.527,3.817-1.582l21.706-21.703c0.322-0.207,0.631-0.444,0.912-0.727c1.08-1.08,1.598-2.498,1.574-3.912   C44.605,26.413,44.086,24.993,43.006,23.916z"/>
    </symbol>
</svg>